<svg xmlns="http://www.w3.org/2000/svg" viewBox="0 0 100 100" width="100" height="100" preserveAspectRatio="none"><filter id="bl174" x="-50%" y="-50%" width="200%" height="200%"><feGaussianBlur stdDeviation="1.4"/></filter>
   <ellipse cx="50" cy="86" rx="30" ry="4" fill="#3A2E1F" opacity="0.16" filter="url(#bl174)"/><linearGradient id="vg175" x1="0" y1="0" x2="0" y2="1"><stop offset="0%" stop-color="#cfb085"/><stop offset="100%" stop-color="#9d815a"/></linearGradient><path d="M 30 68 Q 25 77 22 84" fill="none" stroke="url(#vg175)" stroke-width="7" stroke-linecap="round"/><ellipse cx="22" cy="84" rx="4.34" ry="2.94" fill="#3A2E1F" opacity="0.85" transform="rotate(20 22 84)"/><linearGradient id="vg176" x1="0" y1="0" x2="0" y2="1"><stop offset="0%" stop-color="#cfb085"/><stop offset="100%" stop-color="#9d815a"/></linearGradient><path d="M 41 73 Q 38 80 35 86" fill="none" stroke="url(#vg176)" stroke-width="6.5" stroke-linecap="round"/><ellipse cx="35" cy="86" rx="4.03" ry="2.73" fill="#3A2E1F" opacity="0.85" transform="rotate(20 35 86)"/><linearGradient id="vg177" x1="0" y1="0" x2="0" y2="1"><stop offset="0%" stop-color="#cfb085"/><stop offset="100%" stop-color="#9d815a"/></linearGradient><path d="M 59 73 Q 62 80 65 86" fill="none" stroke="url(#vg177)" stroke-width="6.5" stroke-linecap="round"/><ellipse cx="65" cy="86" rx="4.03" ry="2.73" fill="#3A2E1F" opacity="0.85" transform="rotate(20 65 86)"/><linearGradient id="vg178" x1="0" y1="0" x2="0" y2="1"><stop offset="0%" stop-color="#cfb085"/><stop offset="100%" stop-color="#9d815a"/></linearGradient><path d="M 70 68 Q 75 77 78 84" fill="none" stroke="url(#vg178)" stroke-width="7" stroke-linecap="round"/><ellipse cx="78" cy="84" rx="4.34" ry="2.94" fill="#3A2E1F" opacity="0.85" transform="rotate(20 78 84)"/><linearGradient id="dg171" x1="0" y1="0" x2="1" y2="1"><stop offset="0%" stop-color="#d5b993"/><stop offset="100%" stop-color="#a98b61"/></linearGradient><ellipse cx="50" cy="64" rx="28" ry="16" fill="url(#dg171)" stroke="#3A2E1F" stroke-width="2.6"/><ellipse cx="41" cy="56" rx="8" ry="4" fill="#FFF8EC" opacity="0.4" transform="rotate(-25 41 56)"/><path d="M 77 56 Q 90 58 85 74" fill="none" stroke="#b59568" stroke-width="5" stroke-linecap="round"/><linearGradient id="dg173" x1="0" y1="0" x2="1" y2="1"><stop offset="0%" stop-color="#edc8a4"/><stop offset="100%" stop-color="#c39b74"/></linearGradient><rect x="36" y="36" width="18" height="26" rx="8" fill="url(#dg173)" stroke="#3A2E1F" stroke-width="2.4"/><linearGradient id="vg179" x1="0" y1="0" x2="0" y2="1"><stop offset="0%" stop-color="#ebc198"/><stop offset="100%" stop-color="#b5906c"/></linearGradient><path d="M 34 44 Q 24 40 18 48" fill="none" stroke="url(#vg179)" stroke-width="4.5" stroke-linecap="round"/><circle cx="18" cy="48" r="2.475" fill="#d5aa7f"/><linearGradient id="vg180" x1="0" y1="0" x2="0" y2="1"><stop offset="0%" stop-color="#ebc198"/><stop offset="100%" stop-color="#b5906c"/></linearGradient><path d="M 52 44 Q 60 42 66 46" fill="none" stroke="url(#vg180)" stroke-width="4.5" stroke-linecap="round"/><circle cx="66" cy="46" r="2.475" fill="#d5aa7f"/><linearGradient id="dg172" x1="0" y1="0" x2="1" y2="1"><stop offset="0%" stop-color="#edc8a4"/><stop offset="100%" stop-color="#c39b74"/></linearGradient><circle cx="45" cy="30" r="9" fill="url(#dg172)" stroke="#3A2E1F" stroke-width="2.4"/><ellipse cx="42" cy="27" rx="3" ry="1.6" fill="#FFF8EC" opacity="0.4" transform="rotate(-25 42 27)"/><circle cx="41.8" cy="30" r="1.3" fill="#3A2E1F"/><circle cx="48.2" cy="30" r="1.3" fill="#3A2E1F"/>
   <circle cx="42.19" cy="29.61" r="0.41600000000000004" fill="#FFF8EC" opacity="0.85"/>
   <circle cx="48.59" cy="29.61" r="0.41600000000000004" fill="#FFF8EC" opacity="0.85"/><path d="M 42.6 34 Q 45 35.68 47.4 34" fill="none" stroke="#3A2E1F" stroke-width="1.6" stroke-linecap="round" opacity="0.75"/></svg>
