<svg xmlns="http://www.w3.org/2000/svg" viewBox="0 0 100 100" width="100" height="100" preserveAspectRatio="none"><filter id="bl187" x="-50%" y="-50%" width="200%" height="200%"><feGaussianBlur stdDeviation="1.4"/></filter>
   <ellipse cx="50" cy="90" rx="24" ry="4" fill="#3A2E1F" opacity="0.16" filter="url(#bl187)"/><linearGradient id="vg188" x1="0" y1="0" x2="0" y2="1"><stop offset="0%" stop-color="#acb99c"/><stop offset="100%" stop-color="#7f8b70"/></linearGradient><line x1="32" y1="70" x2="32" y2="84" stroke="url(#vg188)" stroke-width="5" stroke-linecap="round"/>
   <line x1="52" y1="70" x2="52" y2="84" stroke="url(#vg188)" stroke-width="5" stroke-linecap="round"/><linearGradient id="dg186" x1="0" y1="0" x2="1" y2="1"><stop offset="0%" stop-color="#b4c0a5"/><stop offset="100%" stop-color="#869276"/></linearGradient><ellipse cx="50" cy="56" rx="22" ry="24" fill="url(#dg186)" stroke="#3A2E1F" stroke-width="2.6"/><ellipse cx="41" cy="42" rx="6" ry="3.5" fill="#FFF8EC" opacity="0.4" transform="rotate(-25 41 42)"/><path d="M 40 44 Q 50 39 60 44" fill="none" stroke="#3A2E1F" stroke-width="2" stroke-linecap="round" opacity="0.7"/><circle cx="50" cy="52" r="10" fill="#FFF8EC" stroke="#3A2E1F" stroke-width="2.4"/><circle cx="50" cy="52" r="4.4" fill="#C0433A"/><circle cx="50" cy="52" r="1.6" fill="#3A2E1F"/><circle cx="47.5" cy="49.5" r="1.4" fill="#FFF8EC" opacity="0.85"/><path d="M 45 66 Q 50 69.5 55 66" fill="none" stroke="#3A2E1F" stroke-width="1.6" stroke-linecap="round" opacity="0.75"/></svg>
