<svg xmlns="http://www.w3.org/2000/svg" viewBox="0 0 100 100" width="100" height="100" preserveAspectRatio="none"><filter id="bl179" x="-50%" y="-50%" width="200%" height="200%"><feGaussianBlur stdDeviation="1.4"/></filter>
   <ellipse cx="50" cy="88" rx="20" ry="4" fill="#3A2E1F" opacity="0.16" filter="url(#bl179)"/><linearGradient id="vg180" x1="0" y1="0" x2="0" y2="1"><stop offset="0%" stop-color="#9c7f60"/><stop offset="100%" stop-color="#705538"/></linearGradient><line x1="38" y1="62" x2="38" y2="82" stroke="url(#vg180)" stroke-width="5" stroke-linecap="round"/>
   <line x1="54" y1="62" x2="54" y2="82" stroke="url(#vg180)" stroke-width="5" stroke-linecap="round"/><linearGradient id="dg177" x1="0" y1="0" x2="1" y2="1"><stop offset="0%" stop-color="#edc8a4"/><stop offset="100%" stop-color="#c39b74"/></linearGradient><ellipse cx="50" cy="60" rx="14" ry="18" fill="url(#dg177)" stroke="#3A2E1F" stroke-width="2.6"/><linearGradient id="dg178" x1="0" y1="0" x2="1" y2="1"><stop offset="0%" stop-color="#edc8a4"/><stop offset="100%" stop-color="#c39b74"/></linearGradient><circle cx="50" cy="34" r="11" fill="url(#dg178)" stroke="#3A2E1F" stroke-width="2.6"/><ellipse cx="46" cy="30" rx="3.4" ry="1.8" fill="#FFF8EC" opacity="0.4" transform="rotate(-25 46 30)"/><linearGradient id="vg181" x1="0" y1="0" x2="0" y2="1"><stop offset="0%" stop-color="#eee5d2"/><stop offset="100%" stop-color="#c7bea9"/></linearGradient><path d="M 45 28 Q 40 18 46 15" fill="none" stroke="url(#vg181)" stroke-width="3" stroke-linecap="round"/>
   <path d="M 55 28 Q 60 18 54 15" fill="none" stroke="url(#vg181)" stroke-width="3" stroke-linecap="round"/><circle cx="46" cy="34" r="1.6" fill="#3A2E1F"/><circle cx="54" cy="34" r="1.6" fill="#3A2E1F"/>
   <circle cx="46.48" cy="33.52" r="0.512" fill="#FFF8EC" opacity="0.85"/>
   <circle cx="54.48" cy="33.52" r="0.512" fill="#FFF8EC" opacity="0.85"/><path d="M 47 39 Q 50 41.1 53 39" fill="none" stroke="#3A2E1F" stroke-width="1.6" stroke-linecap="round" opacity="0.75"/></svg>
