<svg xmlns="http://www.w3.org/2000/svg" viewBox="0 0 100 100" width="100" height="100" preserveAspectRatio="none">
  <radialGradient id="aura123" cx="50%" cy="42%" r="60%"><stop offset="0%" stop-color="#4C8FE0" stop-opacity="0.38"/><stop offset="100%" stop-color="#4C8FE0" stop-opacity="0"/></radialGradient>
  <circle cx="50" cy="46" r="46" fill="url(#aura123)"/>
  <ellipse cx="50" cy="92" rx="26" ry="4" fill="#3A2E1F" opacity="0.16"/>
  <linearGradient id="robe123" x1="0" y1="0" x2="1" y2="1"><stop offset="0%" stop-color="#F4E9D8"/><stop offset="100%" stop-color="#D8C7A8"/></linearGradient>
  <path d="M 28 90 Q 25 60 37 50 L 63 50 Q 75 60 72 90 Z" fill="url(#robe123)" stroke="#3A2E1F" stroke-width="2.4" stroke-linejoin="round"/>
  <path d="M 44 84 L 40 60 L 50 66 L 60 60 L 56 84 Z" fill="#D8C7A8" opacity="0.35"/>
  <linearGradient id="skin123a" x1="0" y1="0" x2="0" y2="1"><stop offset="0%" stop-color="#D9A873"/><stop offset="100%" stop-color="#bb9063"/></linearGradient>
  <path d="M 38 56 Q 30 62 26 72" fill="none" stroke="url(#skin123a)" stroke-width="4.4" stroke-linecap="round"/>
  <path d="M 62 56 Q 70 62 74 72" fill="none" stroke="url(#skin123a)" stroke-width="4.4" stroke-linecap="round"/>
  <rect x="44" y="46" width="12" height="12" fill="url(#skin123a)" stroke="#3A2E1F" stroke-width="1.2"/>
  <linearGradient id="skin123b" x1="0" y1="0" x2="1" y2="1"><stop offset="0%" stop-color="#D9A873"/><stop offset="100%" stop-color="#bb9063"/></linearGradient>
  <circle cx="50" cy="38" r="16" fill="url(#skin123b)" stroke="#3A2E1F" stroke-width="2.6"/>
  <ellipse cx="44" cy="32" rx="4.4" ry="2.3" fill="#FFF8EC" opacity="0.45" transform="rotate(-25 44 32)"/>
  <circle cx="30" cy="30" r="6" fill="#D9CBB0" stroke="#3A2E1F" stroke-width="1.6"/><circle cx="36.5" cy="26.43517055975426" r="6" fill="#D9CBB0" stroke="#3A2E1F" stroke-width="1.6"/><circle cx="43" cy="26.76601438472164" r="6" fill="#D9CBB0" stroke="#3A2E1F" stroke-width="1.6"/><circle cx="49.5" cy="30.630982776572996" r="6" fill="#D9CBB0" stroke="#3A2E1F" stroke-width="1.6"/><circle cx="56" cy="33.806408295558064" r="6" fill="#D9CBB0" stroke="#3A2E1F" stroke-width="1.6"/><circle cx="62.5" cy="32.822161302281565" r="6" fill="#D9CBB0" stroke="#3A2E1F" stroke-width="1.6"/><circle cx="69" cy="28.753834545946486" r="6" fill="#D9CBB0" stroke="#3A2E1F" stroke-width="1.6"/>
  <circle cx="44" cy="39" r="2.1" fill="#5C4A32"/>
  <circle cx="56" cy="39" r="2.1" fill="#5C4A32"/>
  <path d="M 44 47 Q 50 49.5 56 47" fill="none" stroke="#3A2E1F" stroke-width="1.5" stroke-linecap="round" opacity="0.65"/>
  
</svg>
