<svg xmlns="http://www.w3.org/2000/svg" viewBox="0 0 100 100" width="100" height="100" preserveAspectRatio="none"><path d="M 18 96 Q 50 72 82 96 L 82 100 L 18 100 Z" fill="#C9694A" stroke="#3A2E1F" stroke-width="2.4" stroke-linejoin="round"/><rect x="43" y="68" width="14" height="16" fill="#C98B5C" stroke="#3A2E1F" stroke-width="1.6"/><circle cx="50" cy="54" r="22" fill="#C98B5C" stroke="#3A2E1F" stroke-width="2.6"/><path d="M 25 52 Q 16 30 50 24 Q 84 30 75 52 Q 80 70 74 88 Q 68 72 70 54 Q 70 34 50 30 Q 30 34 30 54 Q 32 72 26 88 Q 20 70 25 52 Z" fill="#6B4423" stroke="#3A2E1F" stroke-width="2.2" stroke-linejoin="round"/><circle cx="43" cy="55" r="2" fill="#3A2E1F"/><circle cx="57" cy="55" r="2" fill="#3A2E1F"/><path d="M 45 64 Q 50 67 55 64" stroke="#3A2E1F" stroke-width="1.8" fill="none" stroke-linecap="round"/><path d="M 28 48 Q 50 40 72 48" stroke="#8F897C" stroke-width="3.2" fill="none" stroke-linecap="round"/><circle cx="72" cy="76" r="11" fill="#F4E9D8" stroke="#3A2E1F" stroke-width="1.8"/><g transform="translate(22 26)"><path d="M 0 -8 L 0 8 M -4 0 L 4 0" stroke="#8F897C" stroke-width="1.1" transform="translate(50 50)"/><circle r="6.5" fill="none" stroke="#8F897C" stroke-width="0.9" transform="translate(50 50)"/></g></svg>
