<svg xmlns="http://www.w3.org/2000/svg" viewBox="0 0 100 100" width="100" height="100" preserveAspectRatio="none"><radialGradient id="aura668" cx="50%" cy="44%" r="62%"><stop offset="0%" stop-color="#4FC3E8" stop-opacity="0.3"/><stop offset="100%" stop-color="#4FC3E8" stop-opacity="0"/></radialGradient><circle cx="50" cy="48" r="48" fill="url(#aura668)"/><ellipse cx="50" cy="93" rx="24" ry="3.6" fill="#3A2E1F" opacity="0.16"/><linearGradient id="dg669" x1="0" y1="0" x2="1" y2="1"><stop offset="0%" stop-color="#dae7ed"/><stop offset="100%" stop-color="#a6b3ba"/></linearGradient><linearGradient id="dg670" x1="0" y1="0" x2="1" y2="1"><stop offset="0%" stop-color="#deb487"/><stop offset="100%" stop-color="#a9835a"/></linearGradient><linearGradient id="dg671" x1="0" y1="0" x2="1" y2="1"><stop offset="0%" stop-color="#c6bbaa"/><stop offset="100%" stop-color="#978b7a"/></linearGradient><path d="M 18 96 Q 50 72 82 96 L 82 100 L 18 100 Z" fill="url(#dg669)" stroke="#3A2E1F" stroke-width="2.4" stroke-linejoin="round"/><rect x="43" y="68" width="14" height="16" fill="url(#dg670)" stroke="#3A2E1F" stroke-width="1.6"/><circle cx="50" cy="54" r="22" fill="url(#dg670)" stroke="#3A2E1F" stroke-width="2.6"/><ellipse cx="43" cy="46" rx="5.5" ry="3" fill="#FFF8EC" opacity="0.4" transform="rotate(-25 43 46)"/><path d="M 38 62 Q 40 76 50 78 Q 60 76 62 62 Q 62 70 50 72 Q 38 70 38 62 Z" fill="url(#dg671)" stroke="#3A2E1F" stroke-width="1.8" stroke-linejoin="round"/><path d="M 25 52 Q 16 30 50 24 Q 84 30 75 52 Q 80 70 74 88 Q 68 72 70 54 Q 70 34 50 30 Q 30 34 30 54 Q 32 72 26 88 Q 20 70 25 52 Z" fill="url(#dg671)" stroke="#3A2E1F" stroke-width="2.2" stroke-linejoin="round"/><circle cx="43" cy="55" r="2" fill="#3A2E1F"/><circle cx="57" cy="55" r="2" fill="#3A2E1F"/><path d="M 45 64 Q 50 67 55 64" stroke="#3A2E1F" stroke-width="1.8" fill="none" stroke-linecap="round"/><path d="M 28 48 Q 50 40 72 48" stroke="#8F897C" stroke-width="3.2" fill="none" stroke-linecap="round"/><circle cx="72" cy="76" r="11" fill="#F4E9D8" stroke="#3A2E1F" stroke-width="1.8"/><g transform="translate(22 26)"><path d="M -6 0 Q -6 -5 -1 -4 Q 0 -6 1 -4 Q 6 -5 6 0 Q 6 4 0 6 Q -6 4 -6 0 Z" fill="#F4E9D8" stroke="#3A2E1F" stroke-width="1" transform="translate(50 50)"/></g></svg>
