<svg xmlns="http://www.w3.org/2000/svg" viewBox="0 0 100 100" width="100" height="100" preserveAspectRatio="none">
  <radialGradient id="aura245" cx="50%" cy="42%" r="60%"><stop offset="0%" stop-color="#C0433A" stop-opacity="0.38"/><stop offset="100%" stop-color="#C0433A" stop-opacity="0"/></radialGradient>
  <circle cx="50" cy="46" r="46" fill="url(#aura245)"/>
  <ellipse cx="50" cy="92" rx="26" ry="4" fill="#3A2E1F" opacity="0.16"/>
  <linearGradient id="robe245" x1="0" y1="0" x2="1" y2="1"><stop offset="0%" stop-color="#D8E0C8"/><stop offset="100%" stop-color="#B4C29A"/></linearGradient>
  <path d="M 28 90 Q 25 60 37 50 L 63 50 Q 75 60 72 90 Z" fill="url(#robe245)" stroke="#3A2E1F" stroke-width="2.4" stroke-linejoin="round"/>
  <path d="M 44 84 L 40 60 L 50 66 L 60 60 L 56 84 Z" fill="#B4C29A" opacity="0.35"/>
  <linearGradient id="skin245a" x1="0" y1="0" x2="0" y2="1"><stop offset="0%" stop-color="#E3B37E"/><stop offset="100%" stop-color="#c39a6c"/></linearGradient>
  <path d="M 38 56 Q 30 62 26 72" fill="none" stroke="url(#skin245a)" stroke-width="4.4" stroke-linecap="round"/>
  <path d="M 62 56 Q 70 62 74 72" fill="none" stroke="url(#skin245a)" stroke-width="4.4" stroke-linecap="round"/>
  <rect x="44" y="46" width="12" height="12" fill="url(#skin245a)" stroke="#3A2E1F" stroke-width="1.2"/>
  <linearGradient id="skin245b" x1="0" y1="0" x2="1" y2="1"><stop offset="0%" stop-color="#E3B37E"/><stop offset="100%" stop-color="#c39a6c"/></linearGradient>
  <circle cx="50" cy="38" r="16" fill="url(#skin245b)" stroke="#3A2E1F" stroke-width="2.6"/>
  <ellipse cx="44" cy="32" rx="4.4" ry="2.3" fill="#FFF8EC" opacity="0.45" transform="rotate(-25 44 32)"/>
  <path d="M 28 46 Q 26 26 50 23 Q 74 26 72 46 Q 66 32 50 30 Q 34 32 28 46 Z" fill="#2B2118" stroke="#3A2E1F" stroke-width="2" stroke-linejoin="round"/>
  <circle cx="44" cy="39" r="2.1" fill="#4C6B8A"/>
  <circle cx="56" cy="39" r="2.1" fill="#4C6B8A"/>
  <path d="M 44 47 Q 50 49.5 56 47" fill="none" stroke="#3A2E1F" stroke-width="1.5" stroke-linecap="round" opacity="0.65"/>
  <path d="M 30 34 Q 50 24 70 34" fill="none" stroke="#C0433A" stroke-width="3.4" stroke-linecap="round"/><circle cx="50" cy="28" r="2.6" fill="#C0433A"/>
</svg>
