<svg xmlns="http://www.w3.org/2000/svg" viewBox="0 0 100 100"><path d="M 18 96 Q 50 72 82 96 L 82 100 L 18 100 Z" fill="#3E7C8A" stroke="#3A2E1F" stroke-width="2.4" stroke-linejoin="round"/><rect x="43" y="68" width="14" height="16" fill="#C98B5C" stroke="#3A2E1F" stroke-width="1.6"/><circle cx="50" cy="54" r="22" fill="#C98B5C" stroke="#3A2E1F" stroke-width="2.6"/><path d="M 38 62 Q 40 76 50 78 Q 60 76 62 62 Q 62 70 50 72 Q 38 70 38 62 Z" fill="#6B4423" stroke="#3A2E1F" stroke-width="1.8" stroke-linejoin="round"/><path d="M 27 50 Q 28 27 50 25 Q 72 27 73 50 Q 66 34 50 32 Q 34 34 27 50 Z" fill="#6B4423" stroke="#3A2E1F" stroke-width="2.2" stroke-linejoin="round"/><circle cx="43" cy="55" r="2" fill="#3A2E1F"/><circle cx="57" cy="55" r="2" fill="#3A2E1F"/><path d="M 45 64 Q 50 67 55 64" stroke="#3A2E1F" stroke-width="1.8" fill="none" stroke-linecap="round"/><ellipse cx="73" cy="38" rx="4.2" ry="2.1" fill="#7FB069" stroke="#3A2E1F" stroke-width="0.9" transform="rotate(25 73 38)"/><ellipse cx="74.66666666666667" cy="33" rx="4.2" ry="2.1" fill="#7FB069" stroke="#3A2E1F" stroke-width="0.9" transform="rotate(33.33333333333333 74.66666666666667 33)"/><ellipse cx="76.33333333333333" cy="28" rx="4.2" ry="2.1" fill="#7FB069" stroke="#3A2E1F" stroke-width="0.9" transform="rotate(41.666666666666664 76.33333333333333 28)"/><ellipse cx="78" cy="23" rx="4.2" ry="2.1" fill="#7FB069" stroke="#3A2E1F" stroke-width="0.9" transform="rotate(50 78 23)"/></svg>
