<svg xmlns="http://www.w3.org/2000/svg" viewBox="0 0 100 100" width="100" height="100" preserveAspectRatio="none"><circle cx="50" cy="54" r="29" fill="none" stroke="#E8B93B" stroke-width="2" opacity="0.5"/><path d="M 18 96 Q 50 72 82 96 L 82 100 L 18 100 Z" fill="#5B7A8F" stroke="#3A2E1F" stroke-width="2.4" stroke-linejoin="round"/><rect x="43" y="68" width="14" height="16" fill="#C98B5C" stroke="#3A2E1F" stroke-width="1.6"/><circle cx="50" cy="54" r="22" fill="#C98B5C" stroke="#3A2E1F" stroke-width="2.6"/><path d="M 38 62 Q 40 76 50 78 Q 60 76 62 62 Q 62 70 50 72 Q 38 70 38 62 Z" fill="#3A2A1C" stroke="#3A2E1F" stroke-width="1.8" stroke-linejoin="round"/><path d="M 27 50 Q 28 27 50 25 Q 72 27 73 50 Q 66 34 50 32 Q 34 34 27 50 Z" fill="#3A2A1C" stroke="#3A2E1F" stroke-width="2.2" stroke-linejoin="round"/><circle cx="43" cy="55" r="2" fill="#3A2E1F"/><circle cx="57" cy="55" r="2" fill="#3A2E1F"/><path d="M 45 64 Q 50 67 55 64" stroke="#3A2E1F" stroke-width="1.8" fill="none" stroke-linecap="round"/><ellipse cx="73" cy="38" rx="4.2" ry="2.1" fill="#E8B93B" stroke="#3A2E1F" stroke-width="0.9" transform="rotate(25 73 38)"/><ellipse cx="74.66666666666667" cy="33" rx="4.2" ry="2.1" fill="#E8B93B" stroke="#3A2E1F" stroke-width="0.9" transform="rotate(33.33333333333333 74.66666666666667 33)"/><ellipse cx="76.33333333333333" cy="28" rx="4.2" ry="2.1" fill="#E8B93B" stroke="#3A2E1F" stroke-width="0.9" transform="rotate(41.666666666666664 76.33333333333333 28)"/><ellipse cx="78" cy="23" rx="4.2" ry="2.1" fill="#E8B93B" stroke="#3A2E1F" stroke-width="0.9" transform="rotate(50 78 23)"/><ellipse cx="27" cy="38" rx="4.2" ry="2.1" fill="#E8B93B" stroke="#3A2E1F" stroke-width="0.9" transform="rotate(-25 27 38)"/><ellipse cx="25.333333333333332" cy="33" rx="4.2" ry="2.1" fill="#E8B93B" stroke="#3A2E1F" stroke-width="0.9" transform="rotate(-33.33333333333333 25.333333333333332 33)"/><ellipse cx="23.666666666666668" cy="28" rx="4.2" ry="2.1" fill="#E8B93B" stroke="#3A2E1F" stroke-width="0.9" transform="rotate(-41.666666666666664 23.666666666666668 28)"/><ellipse cx="22" cy="23" rx="4.2" ry="2.1" fill="#E8B93B" stroke="#3A2E1F" stroke-width="0.9" transform="rotate(-50 22 23)"/><path d="M 33 33 L 37 21 L 43 31 L 50 19 L 57 31 L 63 21 L 67 33 Z" fill="#E8B93B" stroke="#3A2E1F" stroke-width="1.8" stroke-linejoin="round"/><circle cx="72" cy="76" r="11" fill="#F4E9D8" stroke="#3A2E1F" stroke-width="1.8"/><g transform="translate(22 26)"><circle r="6" fill="#E8B93B" stroke="#3A2E1F" stroke-width="1.2" transform="translate(50 50)"/><line x1="57" y1="50" x2="60" y2="50" stroke="#E8B93B" stroke-width="1.4" stroke-linecap="round"/><line x1="54.94974746830583" y1="54.94974746830583" x2="57.071067811865476" y2="57.071067811865476" stroke="#E8B93B" stroke-width="1.4" stroke-linecap="round"/><line x1="50" y1="57" x2="50" y2="60" stroke="#E8B93B" stroke-width="1.4" stroke-linecap="round"/><line x1="45.05025253169417" y1="54.94974746830583" x2="42.928932188134524" y2="57.071067811865476" stroke="#E8B93B" stroke-width="1.4" stroke-linecap="round"/><line x1="43" y1="50" x2="40" y2="50" stroke="#E8B93B" stroke-width="1.4" stroke-linecap="round"/><line x1="45.05025253169417" y1="45.05025253169417" x2="42.928932188134524" y2="42.928932188134524" stroke="#E8B93B" stroke-width="1.4" stroke-linecap="round"/><line x1="50" y1="43" x2="50" y2="40" stroke="#E8B93B" stroke-width="1.4" stroke-linecap="round"/><line x1="54.94974746830583" y1="45.05025253169417" x2="57.071067811865476" y2="42.928932188134524" stroke="#E8B93B" stroke-width="1.4" stroke-linecap="round"/></g></svg>
