<svg xmlns="http://www.w3.org/2000/svg" viewBox="0 0 100 100" width="100" height="100" preserveAspectRatio="none"><path d="M 18 96 Q 50 72 82 96 L 82 100 L 18 100 Z" fill="#3E7C8A" stroke="#3A2E1F" stroke-width="2.4" stroke-linejoin="round"/><rect x="43" y="68" width="14" height="16" fill="#8C5A3C" stroke="#3A2E1F" stroke-width="1.6"/><circle cx="50" cy="54" r="22" fill="#8C5A3C" stroke="#3A2E1F" stroke-width="2.6"/><path d="M 38 62 Q 40 76 50 78 Q 60 76 62 62 Q 62 70 50 72 Q 38 70 38 62 Z" fill="#3A3A3A" stroke="#3A2E1F" stroke-width="1.8" stroke-linejoin="round"/><path d="M 27 50 Q 28 27 50 25 Q 72 27 73 50 Q 66 34 50 32 Q 34 34 27 50 Z" fill="#3A3A3A" stroke="#3A2E1F" stroke-width="2.2" stroke-linejoin="round"/><circle cx="43" cy="55" r="2" fill="#3A2E1F"/><circle cx="57" cy="55" r="2" fill="#3A2E1F"/><path d="M 45 64 Q 50 67 55 64" stroke="#3A2E1F" stroke-width="1.8" fill="none" stroke-linecap="round"/><path d="M 74 24 L 74 66 M 74 24 Q 66 30 74 36 Q 82 42 74 48" fill="none" stroke="#8F897C" stroke-width="2" stroke-linecap="round"/></svg>
