<svg xmlns="http://www.w3.org/2000/svg" viewBox="0 0 100 100" width="100" height="100" preserveAspectRatio="none"><filter id="bl46" x="-50%" y="-50%" width="200%" height="200%"><feGaussianBlur stdDeviation="1.4"/></filter>
   <ellipse cx="50" cy="90" rx="32" ry="4" fill="#3A2E1F" opacity="0.16" filter="url(#bl46)"/><linearGradient id="vg47" x1="0" y1="0" x2="0" y2="1"><stop offset="0%" stop-color="#cac6bd"/><stop offset="100%" stop-color="#9b978d"/></linearGradient><rect x="22" y="52" width="56" height="34" rx="6" fill="url(#vg47)" stroke="#3A2E1F" stroke-width="2.5" stroke-linejoin="round"/><line x1="24" y1="60.5" x2="76" y2="60.5" stroke="#908c83" stroke-width="1" opacity="0.35"/><line x1="24" y1="69" x2="76" y2="69" stroke="#908c83" stroke-width="1" opacity="0.35"/><line x1="24" y1="77.5" x2="76" y2="77.5" stroke="#908c83" stroke-width="1" opacity="0.35"/><linearGradient id="vg48" x1="0" y1="0" x2="0" y2="1"><stop offset="0%" stop-color="#a5a196"/><stop offset="100%" stop-color="#726e63"/></linearGradient><path d="M 19 52 L 25 36 L 75 36 L 81 52 Z" fill="url(#vg48)" stroke="#3A2E1F" stroke-width="2.5" stroke-linejoin="round"/><line x1="21" y1="46.666666666666664" x2="79" y2="46.666666666666664" stroke="#646057" stroke-width="1.3" opacity="0.5"/><line x1="23" y1="41.333333333333336" x2="77" y2="41.333333333333336" stroke="#646057" stroke-width="1.3" opacity="0.5"/><linearGradient id="vg49" x1="0" y1="0" x2="0" y2="1"><stop offset="0%" stop-color="#7f6f62"/><stop offset="100%" stop-color="#4e3c2e"/></linearGradient><path d="M 44 86 L 44 76 A 6 6 0 0 1 56 76 L 56 86 Z" fill="url(#vg49)" stroke="#3A2E1F" stroke-width="1.8"/>
   <line x1="50" y1="76" x2="50" y2="86" stroke="#3A2E1F" stroke-width="1" opacity="0.35"/>
   <circle cx="52.4" cy="79.6" r="1.1" fill="#E8B93B"/><rect x="28" y="61" width="8" height="7" rx="2" fill="#F4E9D8" stroke="#3A2E1F" stroke-width="1.6"/>
   <line x1="32" y1="62.2" x2="32" y2="66.8" stroke="#3A2E1F" stroke-width="1" opacity="0.4"/><rect x="64" y="61" width="8" height="7" rx="2" fill="#F4E9D8" stroke="#3A2E1F" stroke-width="1.6"/>
   <line x1="68" y1="62.2" x2="68" y2="66.8" stroke="#3A2E1F" stroke-width="1" opacity="0.4"/><linearGradient id="dg50" x1="0" y1="0" x2="1" y2="1"><stop offset="0%" stop-color="#c8c5bb"/><stop offset="100%" stop-color="#817b70"/></linearGradient><circle cx="50" cy="46" r="11" fill="url(#dg50)" stroke="#3A2E1F" stroke-width="1.8" opacity="0.9"/><line x1="41" y1="37" x2="59" y2="55" stroke="#F4E9D8" stroke-width="3" stroke-linecap="round"/><line x1="59" y1="37" x2="41" y2="55" stroke="#F4E9D8" stroke-width="3" stroke-linecap="round"/><line x1="26" y1="50" x2="26" y2="38" stroke="#3A2E1F" stroke-width="2" stroke-linecap="round"/>
   <path d="M 26 38 L 40 42 L 26 46 Z" fill="#C0433A" stroke="#3A2E1F" stroke-width="1.6" stroke-linejoin="round"/></svg>
