<svg xmlns="http://www.w3.org/2000/svg" viewBox="0 0 100 100" width="100" height="100" preserveAspectRatio="none"><filter id="bl91" x="-50%" y="-50%" width="200%" height="200%"><feGaussianBlur stdDeviation="1.4"/></filter>
   <ellipse cx="50" cy="93" rx="34" ry="4" fill="#3A2E1F" opacity="0.16" filter="url(#bl91)"/><linearGradient id="dg92" x1="0" y1="0" x2="1" y2="1"><stop offset="0%" stop-color="#aaa59b"/><stop offset="100%" stop-color="#726e63"/></linearGradient><polygon points="24,88.4 31,66 43.6,67.4 52,87 40.8,94" fill="url(#dg92)" stroke="#3A2E1F" stroke-width="2.4" stroke-linejoin="round"/><line x1="31" y1="66" x2="40.1" y2="78.6" stroke="#615d54" stroke-width="1.3" opacity="0.5" stroke-linecap="round"/><linearGradient id="dg93" x1="0" y1="0" x2="1" y2="1"><stop offset="0%" stop-color="#cac6bd"/><stop offset="100%" stop-color="#949086"/></linearGradient><polygon points="39,85.4 48.5,55 65.6,56.9 77,83.5 61.8,93" fill="url(#dg93)" stroke="#3A2E1F" stroke-width="2.4" stroke-linejoin="round"/><line x1="48.5" y1="55" x2="60.85" y2="72.1" stroke="#7e7a72" stroke-width="1.3" opacity="0.5" stroke-linecap="round"/><linearGradient id="dg94" x1="0" y1="0" x2="1" y2="1"><stop offset="0%" stop-color="#aaa59b"/><stop offset="100%" stop-color="#726e63"/></linearGradient><polygon points="60,90 65,74 74,75 80,89 72,94" fill="url(#dg94)" stroke="#3A2E1F" stroke-width="2.4" stroke-linejoin="round"/><line x1="65" y1="74" x2="71.5" y2="83" stroke="#615d54" stroke-width="1.3" opacity="0.5" stroke-linecap="round"/></svg>
