<svg xmlns="http://www.w3.org/2000/svg" viewBox="0 0 100 100" width="100" height="100" preserveAspectRatio="none"><filter id="t3glow" x="-45%" y="-45%" width="190%" height="190%"><feDropShadow dx="0" dy="0" stdDeviation="2.4" flood-color="#E8B93B" flood-opacity="0.9"/></filter><g filter="url(#t3glow)"><filter id="bl154" x="-50%" y="-50%" width="200%" height="200%"><feGaussianBlur stdDeviation="1.4"/></filter>
   <ellipse cx="50" cy="92" rx="18" ry="4" fill="#3A2E1F" opacity="0.16" filter="url(#bl154)"/><linearGradient id="vg155" x1="0" y1="0" x2="0" y2="1"><stop offset="0%" stop-color="#aaa59b"/><stop offset="100%" stop-color="#787368"/></linearGradient><rect x="40.5" y="23" width="19" height="67" rx="4" fill="url(#vg155)" stroke="#3A2E1F" stroke-width="2.5" stroke-linejoin="round"/><line x1="42.5" y1="31.5" x2="57.5" y2="31.5" stroke="#706b61" stroke-width="1" opacity="0.35"/><line x1="42.5" y1="40" x2="57.5" y2="40" stroke="#706b61" stroke-width="1" opacity="0.35"/><line x1="42.5" y1="48.5" x2="57.5" y2="48.5" stroke="#706b61" stroke-width="1" opacity="0.35"/><line x1="42.5" y1="57" x2="57.5" y2="57" stroke="#706b61" stroke-width="1" opacity="0.35"/><line x1="42.5" y1="65.5" x2="57.5" y2="65.5" stroke="#706b61" stroke-width="1" opacity="0.35"/><line x1="42.5" y1="74" x2="57.5" y2="74" stroke="#706b61" stroke-width="1" opacity="0.35"/><line x1="42.5" y1="82.5" x2="57.5" y2="82.5" stroke="#706b61" stroke-width="1" opacity="0.35"/><linearGradient id="vg156" x1="0" y1="0" x2="0" y2="1"><stop offset="0%" stop-color="#ecb589"/><stop offset="100%" stop-color="#b98256"/></linearGradient><path d="M 35.5 23 L 50 9 L 64.5 23 Z" fill="url(#vg156)" stroke="#3A2E1F" stroke-width="2.5" stroke-linejoin="round"/><line x1="39.125" y1="19.5" x2="60.875" y2="19.5" stroke="#a2714b" stroke-width="1.3" opacity="0.5"/><line x1="42.75" y1="16" x2="57.25" y2="16" stroke="#a2714b" stroke-width="1.3" opacity="0.5"/><line x1="46.375" y1="12.5" x2="53.625" y2="12.5" stroke="#a2714b" stroke-width="1.3" opacity="0.5"/><circle cx="50" cy="37" r="3.6" fill="#E8B93B" stroke="#3A2E1F" stroke-width="1.6"/>
   <circle cx="48.92" cy="35.92" r="1.08" fill="#FFF8EC" opacity="0.55"/><circle cx="50" cy="49" r="3.6" fill="#3A2E1F" stroke="#3A2E1F" stroke-width="1.6"/>
   <circle cx="48.92" cy="47.92" r="1.08" fill="#FFF8EC" opacity="0.55"/><line x1="50" y1="11" x2="50" y2="-3" stroke="#3A2E1F" stroke-width="2" stroke-linecap="round"/>
   <path d="M 50 -3 L 64 1 L 50 5 Z" fill="#E8B93B" stroke="#3A2E1F" stroke-width="1.6" stroke-linejoin="round"/><linearGradient id="vg157" x1="0" y1="0" x2="0" y2="1"><stop offset="0%" stop-color="#efce76"/><stop offset="100%" stop-color="#c59d32"/></linearGradient><polygon points="50,-8 51.32251681765806,-4.8202882373436315 54.75528258147577,-4.545084971874737 52.139877161664096,-2.3047117626563685 52.93892626146236,1.0450849718747373 50,-0.75 47.06107373853764,1.0450849718747373 47.860122838335904,-2.304711762656368 45.24471741852423,-4.545084971874736 48.67748318234194,-4.8202882373436315" fill="url(#vg157)" stroke="#3A2E1F" stroke-width="1.2" stroke-linejoin="round"/></g></svg>
